<svg id="圖層_1" data-name="圖層 1" xmlns="http://www.w3.org/2000/svg" viewBox="0 0 192 192"><title>Move17</title><path d="M168.2,141.6H50.4V54.2a3.8,3.8,0,0,0-3.8-3.8H23.8A3.8,3.8,0,0,0,20,54.2v7.6a3.8,3.8,0,0,0,3.8,3.8H35.2V153a3.8,3.8,0,0,0,3.8,3.8H58.68a11.39,11.39,0,1,0,22.12,3.8,12,12,0,0,0-.68-3.8h47a11.39,11.39,0,1,0,22.12,3.8,11.71,11.71,0,0,0-.69-3.8H168.2A3.8,3.8,0,0,0,172,153h0v-7.6a3.8,3.8,0,0,0-3.8-3.79Z"/><path d="M71.1,86.4h77c3,0,5.5,3,5.5,6.66v26.67c0,3.68-2.46,6.67-5.5,6.67h-77c-3,0-5.5-3-5.5-6.67V93.06C65.6,89.38,68.06,86.4,71.1,86.4Z"/><path d="M82.41,31.2h77c3,0,5.5,3,5.5,6.66V64.53c0,3.68-2.46,6.67-5.5,6.67h-77c-3,0-5.5-3-5.5-6.67V37.86C76.91,34.18,79.37,31.2,82.41,31.2Z"/></svg>