<svg id="圖層_2" data-name="圖層 2" xmlns="http://www.w3.org/2000/svg" viewBox="0 0 192 192"><defs><style>.cls-1{fill-rule:evenodd;}</style></defs><title>查看</title><g id="Shape_1" data-name="Shape 1"><path class="cls-1" d="M58.92,135a5.32,5.32,0,1,0,5.32,5.32A5.32,5.32,0,0,0,58.92,135Zm99.52-76.41L115.88,16a5.33,5.33,0,0,0-3.76-1.55H37.64a5.32,5.32,0,0,0-5.32,5.31V172.2a5.32,5.32,0,0,0,5.32,5.31h117a5.29,5.29,0,0,0,5-3.57V60.59A5.32,5.32,0,0,0,158.44,58.57Zm-41-25.93L141.84,57h-24.4Zm31.92,134.24H43V25.12H106.8V62.33a5.32,5.32,0,0,0,5.32,5.32h37.24ZM58.92,113.72A5.32,5.32,0,1,0,64.24,119,5.32,5.32,0,0,0,58.92,113.72Zm0-21.26a5.32,5.32,0,1,0,5.32,5.31A5.32,5.32,0,0,0,58.92,92.46Zm74.48,21.26H80.2a5.32,5.32,0,1,0,0,10.63h53.2a5.32,5.32,0,1,0,0-10.63Zm0,21.26H80.2a5.32,5.32,0,0,0,0,10.64h53.2a5.32,5.32,0,0,0,0-10.64ZM74.88,97.77a5.32,5.32,0,0,0,5.32,5.32h53.2a5.32,5.32,0,1,0,0-10.63H80.2A5.32,5.32,0,0,0,74.88,97.77Z"/></g></svg>