<svg id="圖層_1" data-name="圖層 1" xmlns="http://www.w3.org/2000/svg" viewBox="0 0 192 192"><title>Edit</title><path d="M126.24,50.39,150,74.19a2.57,2.57,0,0,1,0,3.64L92.41,135.46l-24.49,2.72a5.13,5.13,0,0,1-5.67-5.67L65,108,122.6,50.39a2.57,2.57,0,0,1,3.64,0Zm42.75-6L156.11,31.47a10.3,10.3,0,0,0-14.56,0l-9.34,9.34a2.57,2.57,0,0,0,0,3.64L156,68.25a2.58,2.58,0,0,0,3.64,0L169,58.91A10.33,10.33,0,0,0,169,44.34Zm-47.66,75.45v26.86H36.89V62.21H97.53a3.21,3.21,0,0,0,2.24-.92l10.56-10.56a3.17,3.17,0,0,0-2.24-5.41H32.67A12.67,12.67,0,0,0,20,58v92.89a12.66,12.66,0,0,0,12.67,12.66h92.89a12.66,12.66,0,0,0,12.66-12.66V109.23a3.17,3.17,0,0,0-5.41-2.24l-10.55,10.56A3.24,3.24,0,0,0,121.33,119.79Z"/></svg>