<svg id="圖層_1" data-name="圖層 1" xmlns="http://www.w3.org/2000/svg" xmlns:xlink="http://www.w3.org/1999/xlink" viewBox="0 0 597.09 195.46"><defs><style>.cls-1{fill:url(#linear-gradient);}.cls-2{fill:url(#linear-gradient-2);}.cls-3{fill:url(#linear-gradient-3);}.cls-4{fill:url(#linear-gradient-4);}.cls-5{fill:url(#linear-gradient-5);}.cls-6{fill:url(#linear-gradient-6);}.cls-7{fill:#070102;}.cls-8{fill:url(#gold);}.cls-9{fill:#ab2a2a;}</style><linearGradient id="linear-gradient" x1="477.46" y1="165.26" x2="477.46" y2="393.73" gradientUnits="userSpaceOnUse"><stop offset="0" stop-color="#af7722"/><stop offset="0.15" stop-color="#ca982a"/><stop offset="0.27" stop-color="#f5d46d"/><stop offset="0.41" stop-color="#f6dd73"/><stop offset="0.55" stop-color="#ab7623"/><stop offset="0.7" stop-color="#ca9d3f"/><stop offset="0.87" stop-color="#f5d46d"/><stop offset="1" stop-color="#f6dd73"/></linearGradient><linearGradient id="linear-gradient-2" x1="433.53" y1="271.37" x2="521.41" y2="271.37" xlink:href="#linear-gradient"/><linearGradient id="linear-gradient-3" x1="575.72" y1="166.05" x2="575.72" y2="394.52" xlink:href="#linear-gradient"/><linearGradient id="linear-gradient-4" x1="531.33" y1="271.37" x2="620.1" y2="271.37" xlink:href="#linear-gradient"/><linearGradient id="linear-gradient-5" x1="676.44" y1="165.94" x2="676.44" y2="394.42" xlink:href="#linear-gradient"/><linearGradient id="linear-gradient-6" x1="633.39" y1="271.37" x2="719.48" y2="271.37" xlink:href="#linear-gradient"/><linearGradient id="gold" x1="40.9" y1="-3.51" x2="227.47" y2="184.77" gradientUnits="userSpaceOnUse"><stop offset="0" stop-color="#c1a261"/><stop offset="0.04" stop-color="#d2ba70"/><stop offset="0.09" stop-color="#eee288"/><stop offset="0.16" stop-color="#b99454"/><stop offset="0.28" stop-color="#f3efb2"/><stop offset="0.39" stop-color="#f1d385"/><stop offset="0.51" stop-color="#c0914a"/><stop offset="0.57" stop-color="#be8e4a"/><stop offset="0.6" stop-color="#bc8a4a"/><stop offset="0.73" stop-color="#e5d175"/><stop offset="0.83" stop-color="#f3efb2"/><stop offset="1" stop-color="#dccb74"/></linearGradient></defs><title>官網標準色2</title><path class="cls-1" d="M488.86,176.78H519v165.5c0,5.88-1.36,10.5-4,13.9-2.7,3.58-7.13,6.1-13.22,7.57S487.55,366,477,366q-22,0-31.56-5.38T435.89,343V176.78h32.64v169.1h20.33Z" transform="translate(-122.39 -173.64)"/><path class="cls-2" d="M477,368.31c-15.2,0-25.89-1.86-32.71-5.67-7.16-4-10.79-10.61-10.79-19.66V174.42h37.36V343.53H486.5V174.42h34.91V342.28c0,6.38-1.55,11.56-4.59,15.37S509,364.44,502.33,366C496.18,367.54,487.67,368.31,477,368.31Zm-38.8-189.17V343c0,7.32,2.75,12.4,8.39,15.54,6,3.37,16.25,5.08,30.41,5.08,10.26,0,18.39-.72,24.18-2.13,5.55-1.35,9.55-3.6,11.9-6.71s3.58-7.18,3.58-12.48V179.14H491.2v169.1h-25V179.14Z" transform="translate(-122.39 -173.64)"/><path class="cls-3" d="M617.74,207v28H587.25V195.88H566.63v59.63H583q12.93,0,18.32,1a23.26,23.26,0,0,1,9.48,3.95c3,1.9,4.95,3.85,5.82,5.82.73,2.28,1.08,8.59,1.08,14v63.07q0,8.71-4.1,13.74-4.08,5.3-13.37,7.47-9,2.18-25,2.19c-14.81,0-23-1.78-29.44-5.32s-9.7-9.33-9.7-17.39V298.59h30.48v48.26h20.62V272.52H568.39c-8.19,0-14-.29-17.47-.94a26.28,26.28,0,0,1-10.34-3.81,14.67,14.67,0,0,1-3.66-3.12,18.28,18.28,0,0,1-1.95-3.28,18.06,18.06,0,0,1-1.08-4.2,61.45,61.45,0,0,1-.2-6.8V201.83c.27-8.86,3.51-17.46,9.69-20.8s17.16-5,33-5q22.6,0,32.75,6c3.46,2.09,5.77,6.68,6.92,8.86,1.15,2.36,1.71,5.8,1.71,10.33Z" transform="translate(-122.39 -173.64)"/><path class="cls-4" d="M575.29,369.1c-14.46,0-23.31-1.63-30.57-5.61S533.79,353,533.79,344V296.24H569v48.25h15.9V274.88h-16.5c-8.48,0-14.34-.32-17.91-1a28.41,28.41,0,0,1-11.15-4.12A16.75,16.75,0,0,1,535,266a20.85,20.85,0,0,1-2.13-3.58,20.26,20.26,0,0,1-1.3-4.89,56.28,56.28,0,0,1-.23-7.16V201.83c.33-10.67,4.53-19.41,10.92-22.87,6.57-3.58,17.73-5.32,34.11-5.32,15.66,0,26.77,2.06,33.95,6.3,3.89,2.37,6.34,7,7.65,9.52l.14.27c1.35,2.76,2,6.49,2,11.43v36.21H584.89V198.23H569v54.93h14c8.7,0,15,.34,18.73,1a25.7,25.7,0,0,1,10.39,4.32c3.4,2.15,5.58,4.38,6.66,6.82l.09.26c.88,2.77,1.19,9.66,1.19,14.72v63.07c0,6.34-1.56,11.46-4.64,15.23s-7.94,6.71-14.64,8.28C594.59,368.34,586,369.1,575.29,369.1ZM538.5,301V344c0,7.2,2.78,12.22,8.48,15.32,6.51,3.58,14.71,5,28.31,5,10.34,0,18.57-.72,24.44-2.13,5.63-1.32,9.68-3.54,12-6.61s3.62-7.09,3.62-12.31V280.27c0-5.71-.39-11.31-.93-13.19-.72-1.5-2.39-3.11-4.87-4.67l-.14-.1a21.25,21.25,0,0,0-8.55-3.53c-3.41-.6-9.43-.91-17.86-.91H564.27V193.52h25.34v39.15h25.78V201.16c0-4.15-.5-7.28-1.49-9.3l-.1-.21c-1.1-2.1-3.16-6-5.91-7.67-6.33-3.73-16.94-5.64-31.53-5.64-15.36,0-26.07,1.61-31.85,4.76-5,2.67-8.2,9.88-8.48,18.81v48.46a50.65,50.65,0,0,0,.19,6.41,14.87,14.87,0,0,0,.92,3.66,15.81,15.81,0,0,0,1.62,2.73,12.3,12.3,0,0,0,3.14,2.64,23.77,23.77,0,0,0,9.36,3.44c3.33.62,9.06.93,17.13.93h21.22v79H564.27V301Z" transform="translate(-122.39 -173.64)"/><path class="cls-5" d="M717.12,205v28.33h-32V193.69H665.33V346.56h19.74V270.75H674V254.12h43.15V343c0,5.87-1.33,10.49-4,13.9q-4,5.36-12.93,7.57-8.78,2.21-24.2,2.2c-14.32,0-24.64-1.79-30.88-5.38s-9.38-9.44-9.38-17.59V205c0-6.79.46-11.52,1.45-14.18a16.17,16.17,0,0,1,5.43-7.42,32.8,32.8,0,0,1,12.92-5.64q7.5-1.67,21.5-1.66,21.9,0,30.88,5.38,9.16,5.35,9.18,17.6Z" transform="translate(-122.39 -173.64)"/><path class="cls-6" d="M676,369c-14.9,0-25.38-1.86-32.06-5.69-7-4-10.57-10.6-10.57-19.64V205c0-7.17.53-12.07,1.6-15a18.56,18.56,0,0,1,6.22-8.48,35.22,35.22,0,0,1,13.88-6.08c5.11-1.13,12.51-1.7,22-1.7,15.17,0,25.67,1.86,32.09,5.71,6.85,4,10.33,10.61,10.33,19.62v36.6H682.71V196.05h-15V344.22h15V273.1h-11.1V251.76h47.87V343c0,6.36-1.5,11.52-4.47,15.34s-7.73,6.82-14.23,8.41C694.76,368.23,686.42,369,676,369Zm1-190.56c-9.12,0-16.18.55-21,1.6a30.7,30.7,0,0,0-12,5.25,13.93,13.93,0,0,0-4.62,6.34c-.86,2.35-1.3,6.85-1.3,13.36V343.67c0,7.32,2.67,12.41,8.19,15.55,5.87,3.36,15.86,5.07,29.72,5.07,10,0,18-.72,23.62-2.14,5.42-1.33,9.33-3.58,11.62-6.68s3.52-7.21,3.52-12.5V256.48H676.32V268.4h11.1v80.52H663V191.34h24.44V231h27.36V199.07c0-7.32-2.64-12.42-8-15.57C701.13,180.14,691.15,178.44,677.06,178.44Z" transform="translate(-122.39 -173.64)"/><rect class="cls-7" width="282.44" height="195.46"/><polygon class="cls-8" points="233.83 123.44 282.44 123.44 282.44 71.15 234.08 71.15 282.44 22.91 282.44 0 260.28 0 211.65 48.53 211.65 0 160.12 0 160.12 71.12 123.79 71.12 123.79 0 72.23 0 72.23 50.9 21.4 0 0 0 0 22.25 48.89 71.15 0 71.15 0 123.44 50.34 123.44 0 173.84 0 195.46 22.05 195.46 72.23 145.15 72.23 195.46 123.79 195.46 123.79 123.44 160.12 123.44 160.12 195.46 211.65 195.46 211.65 144.88 262.77 195.46 282.44 195.46 282.44 171.97 233.83 123.44"/><polygon class="cls-9" points="72.23 71.15 72.23 61.8 10.45 0 0 0 0 11.37 59.79 71.15 72.23 71.15"/><polygon class="cls-9" points="0 184.67 0 195.46 11.06 195.46 72.23 134.25 72.23 123.44 61.23 123.44 0 184.67"/><polygon class="cls-9" points="211.65 123.44 211.65 133.99 273.13 195.46 282.44 195.46 282.44 182.96 222.92 123.44 211.65 123.44"/><polygon class="cls-9" points="205.13 0 166.66 0 166.66 78.42 117.26 78.42 117.26 0 78.77 0 78.77 78.42 0 78.42 0 116.17 78.77 116.17 78.77 195.46 117.26 195.46 117.26 116.17 166.66 116.17 166.66 195.46 205.13 195.46 205.13 116.17 282.44 116.17 282.44 78.42 205.13 78.42 205.13 0"/><polygon class="cls-9" points="271.8 0 211.65 60.14 211.65 71.15 222.47 71.15 282.44 11.18 282.44 0 271.8 0"/></svg>