<svg id="圖層_1" data-name="圖層 1" xmlns="http://www.w3.org/2000/svg" viewBox="0 0 192 192"><title>Unview</title><path d="M95.76,131.79,104.37,144c-2.73.27-5.48.41-8.22.41A85.79,85.79,0,0,1,22,102.64a12.65,12.65,0,0,1,0-12.83,85.1,85.1,0,0,1,25.2-27.06L62.21,84.16a35.83,35.83,0,0,0,33.55,47.63Zm74.31-29.6a85.41,85.41,0,0,1-35.48,33.13h0l11,15.55a6.31,6.31,0,0,1-1.52,8.8l-3.45,2.43a6.32,6.32,0,0,1-8.8-1.53L46.45,41.13A6.31,6.31,0,0,1,48,32.33l3.45-2.43a6.32,6.32,0,0,1,8.8,1.53L73.71,50.5A86.49,86.49,0,0,1,170,89.36a12.65,12.65,0,0,1,0,12.83Zm-38.28-6.3A35.82,35.82,0,0,0,82.55,62.82l5.1,7.11a27.4,27.4,0,0,1,21.17,1.88h0a11.27,11.27,0,1,0,11.3,11.24h0A27.36,27.36,0,0,1,118,112.25h0l5.1,7.1A35.63,35.63,0,0,0,131.79,95.89ZM89.24,122.53,68.75,93.44A27.38,27.38,0,0,0,89.24,122.53Z"/></svg>