<svg id="圖層_1" data-name="圖層 1" xmlns="http://www.w3.org/2000/svg" xmlns:xlink="http://www.w3.org/1999/xlink" viewBox="0 0 600 248"><defs><style>.cls-1{fill:url(#linear-gradient);}.cls-2{fill:url(#linear-gradient-2);}.cls-3{fill:url(#linear-gradient-3);}.cls-4{fill:url(#linear-gradient-4);}.cls-5{fill:url(#linear-gradient-5);}.cls-6{fill:url(#linear-gradient-6);}.cls-7{fill:#070102;}.cls-8{fill:url(#gold);}.cls-9{fill:#ab2a2a;}.cls-10{fill:url(#linear-gradient-7);}.cls-11{fill:url(#linear-gradient-8);}.cls-12{fill:url(#linear-gradient-9);}.cls-13{fill:url(#linear-gradient-10);}.cls-14{fill:url(#linear-gradient-11);}.cls-15{fill:url(#linear-gradient-12);}.cls-16{fill:url(#linear-gradient-13);}.cls-17{fill:url(#linear-gradient-14);}.cls-18{fill:url(#linear-gradient-15);}.cls-19{fill:url(#linear-gradient-16);}.cls-20{fill:url(#linear-gradient-17);}.cls-21{fill:url(#linear-gradient-18);}.cls-22{fill:url(#linear-gradient-19);}.cls-23{fill:url(#linear-gradient-20);}.cls-24{fill:url(#linear-gradient-21);}.cls-25{fill:url(#linear-gradient-22);}.cls-26{fill:url(#linear-gradient-23);}.cls-27{fill:url(#linear-gradient-24);}.cls-28{fill:url(#linear-gradient-25);}.cls-29{fill:url(#linear-gradient-26);}.cls-30{fill:url(#linear-gradient-27);}.cls-31{fill:url(#linear-gradient-28);}.cls-32{fill:url(#linear-gradient-29);}.cls-33{fill:url(#linear-gradient-30);}.cls-34{fill:url(#linear-gradient-31);}.cls-35{fill:url(#linear-gradient-32);}</style><linearGradient id="linear-gradient" x1="477.46" y1="165.26" x2="477.46" y2="393.73" gradientUnits="userSpaceOnUse"><stop offset="0" stop-color="#af7722"/><stop offset="0.15" stop-color="#ca982a"/><stop offset="0.27" stop-color="#f5d46d"/><stop offset="0.41" stop-color="#f6dd73"/><stop offset="0.55" stop-color="#ab7623"/><stop offset="0.7" stop-color="#ca9d3f"/><stop offset="0.87" stop-color="#f5d46d"/><stop offset="1" stop-color="#f6dd73"/></linearGradient><linearGradient id="linear-gradient-2" x1="433.53" y1="271.37" x2="521.41" y2="271.37" xlink:href="#linear-gradient"/><linearGradient id="linear-gradient-3" x1="575.72" y1="166.05" x2="575.72" y2="394.52" xlink:href="#linear-gradient"/><linearGradient id="linear-gradient-4" x1="531.33" y1="271.37" x2="620.1" y2="271.37" xlink:href="#linear-gradient"/><linearGradient id="linear-gradient-5" x1="676.44" y1="165.94" x2="676.44" y2="394.42" xlink:href="#linear-gradient"/><linearGradient id="linear-gradient-6" x1="633.39" y1="271.37" x2="719.48" y2="271.37" xlink:href="#linear-gradient"/><linearGradient id="gold" x1="42.35" y1="-3.51" x2="228.91" y2="184.77" gradientUnits="userSpaceOnUse"><stop offset="0" stop-color="#c1a261"/><stop offset="0.04" stop-color="#d2ba70"/><stop offset="0.09" stop-color="#eee288"/><stop offset="0.16" stop-color="#b99454"/><stop offset="0.28" stop-color="#f3efb2"/><stop offset="0.39" stop-color="#f1d385"/><stop offset="0.51" stop-color="#c0914a"/><stop offset="0.57" stop-color="#be8e4a"/><stop offset="0.6" stop-color="#bc8a4a"/><stop offset="0.73" stop-color="#e5d175"/><stop offset="0.83" stop-color="#f3efb2"/><stop offset="1" stop-color="#dccb74"/></linearGradient><linearGradient id="linear-gradient-7" x1="120.94" y1="398.74" x2="148.51" y2="398.74" gradientUnits="userSpaceOnUse"><stop offset="0.7" stop-color="#ca9d3f"/><stop offset="1" stop-color="#f6dd73"/></linearGradient><linearGradient id="linear-gradient-8" x1="153.55" y1="403.04" x2="170.84" y2="403.04" xlink:href="#linear-gradient-7"/><linearGradient id="linear-gradient-9" x1="177.53" y1="402.8" x2="195.24" y2="402.8" xlink:href="#linear-gradient-7"/><linearGradient id="linear-gradient-10" x1="200.02" y1="399.21" x2="210.42" y2="399.21" xlink:href="#linear-gradient-7"/><linearGradient id="linear-gradient-11" x1="215.86" y1="402.55" x2="227.46" y2="402.55" xlink:href="#linear-gradient-7"/><linearGradient id="linear-gradient-12" x1="230.85" y1="402.8" x2="250.49" y2="402.8" xlink:href="#linear-gradient-7"/><linearGradient id="linear-gradient-13" x1="257.34" y1="398.74" x2="260.95" y2="398.74" xlink:href="#linear-gradient-7"/><linearGradient id="linear-gradient-14" x1="269.05" y1="398.74" x2="272.67" y2="398.74" xlink:href="#linear-gradient-7"/><linearGradient id="linear-gradient-15" x1="279.41" y1="402.8" x2="299.06" y2="402.8" xlink:href="#linear-gradient-7"/><linearGradient id="linear-gradient-16" x1="305.99" y1="402.55" x2="323.32" y2="402.55" xlink:href="#linear-gradient-7"/><linearGradient id="linear-gradient-17" x1="345.9" y1="398.74" x2="365.75" y2="398.74" xlink:href="#linear-gradient-7"/><linearGradient id="linear-gradient-18" x1="371.48" y1="402.8" x2="391.46" y2="402.8" xlink:href="#linear-gradient-7"/><linearGradient id="linear-gradient-19" x1="398.13" y1="402.55" x2="409.72" y2="402.55" xlink:href="#linear-gradient-7"/><linearGradient id="linear-gradient-20" x1="413.13" y1="402.8" x2="432.79" y2="402.8" xlink:href="#linear-gradient-7"/><linearGradient id="linear-gradient-21" x1="437.28" y1="402.8" x2="457.24" y2="402.8" xlink:href="#linear-gradient-7"/><linearGradient id="linear-gradient-22" x1="476.95" y1="398.74" x2="505.06" y2="398.74" xlink:href="#linear-gradient-7"/><linearGradient id="linear-gradient-23" x1="512.12" y1="402.8" x2="531.77" y2="402.8" xlink:href="#linear-gradient-7"/><linearGradient id="linear-gradient-24" x1="538.65" y1="402.55" x2="550.25" y2="402.55" xlink:href="#linear-gradient-7"/><linearGradient id="linear-gradient-25" x1="554.89" y1="398.74" x2="572.56" y2="398.74" xlink:href="#linear-gradient-7"/><linearGradient id="linear-gradient-26" x1="576.71" y1="402.8" x2="596.37" y2="402.8" xlink:href="#linear-gradient-7"/><linearGradient id="linear-gradient-27" x1="601.26" y1="399.21" x2="611.67" y2="399.21" xlink:href="#linear-gradient-7"/><linearGradient id="linear-gradient-28" x1="617.15" y1="406.64" x2="635.66" y2="406.64" xlink:href="#linear-gradient-7"/><linearGradient id="linear-gradient-29" x1="642.41" y1="398.74" x2="646.03" y2="398.74" xlink:href="#linear-gradient-7"/><linearGradient id="linear-gradient-30" x1="652.87" y1="402.8" x2="672.52" y2="402.8" xlink:href="#linear-gradient-7"/><linearGradient id="linear-gradient-31" x1="678.35" y1="402.8" x2="696.92" y2="402.8" xlink:href="#linear-gradient-7"/><linearGradient id="linear-gradient-32" x1="701.28" y1="402.8" x2="720.94" y2="402.8" xlink:href="#linear-gradient-7"/></defs><title>官網標準色</title><path class="cls-1" d="M488.86,176.78H519v165.5c0,5.88-1.36,10.5-4,13.9-2.7,3.58-7.13,6.1-13.22,7.57S487.55,366,477,366q-22,0-31.56-5.38T435.89,343V176.78h32.64v169.1h20.33Z" transform="translate(-120.94 -173.64)"/><path class="cls-2" d="M477,368.31c-15.2,0-25.89-1.86-32.71-5.67-7.16-4-10.79-10.61-10.79-19.66V174.42h37.36V343.53H486.5V174.42h34.91V342.28c0,6.38-1.55,11.56-4.59,15.37S509,364.44,502.33,366C496.18,367.54,487.67,368.31,477,368.31Zm-38.8-189.17V343c0,7.32,2.75,12.4,8.39,15.54,6,3.37,16.25,5.08,30.41,5.08,10.26,0,18.39-.72,24.18-2.13,5.55-1.35,9.55-3.6,11.9-6.71s3.58-7.18,3.58-12.48V179.14H491.2v169.1h-25V179.14Z" transform="translate(-120.94 -173.64)"/><path class="cls-3" d="M617.74,207v28H587.25V195.88H566.63v59.63H583q12.93,0,18.32,1a23.26,23.26,0,0,1,9.48,3.95c3,1.9,4.95,3.85,5.82,5.82.73,2.28,1.08,8.59,1.08,14v63.07q0,8.71-4.1,13.74-4.08,5.3-13.37,7.47-9,2.18-25,2.19c-14.81,0-23-1.78-29.44-5.32s-9.7-9.33-9.7-17.39V298.59h30.48v48.26h20.62V272.52H568.39c-8.19,0-14-.29-17.47-.94a26.28,26.28,0,0,1-10.34-3.81,14.67,14.67,0,0,1-3.66-3.12,18.28,18.28,0,0,1-1.95-3.28,18.06,18.06,0,0,1-1.08-4.2,61.45,61.45,0,0,1-.2-6.8V201.83c.27-8.86,3.51-17.46,9.69-20.8s17.16-5,33-5q22.6,0,32.75,6c3.46,2.09,5.77,6.68,6.92,8.86,1.15,2.36,1.71,5.8,1.71,10.33Z" transform="translate(-120.94 -173.64)"/><path class="cls-4" d="M575.29,369.1c-14.46,0-23.31-1.63-30.57-5.61S533.79,353,533.79,344V296.24H569v48.25h15.9V274.88h-16.5c-8.48,0-14.34-.32-17.91-1a28.41,28.41,0,0,1-11.15-4.12A16.75,16.75,0,0,1,535,266a20.85,20.85,0,0,1-2.13-3.58,20.26,20.26,0,0,1-1.3-4.89,56.28,56.28,0,0,1-.23-7.16V201.83c.33-10.67,4.53-19.41,10.92-22.87,6.57-3.58,17.73-5.32,34.11-5.32,15.66,0,26.77,2.06,33.95,6.3,3.89,2.37,6.34,7,7.65,9.52l.14.27c1.35,2.76,2,6.49,2,11.43v36.21H584.89V198.23H569v54.93h14c8.7,0,15,.34,18.73,1a25.7,25.7,0,0,1,10.39,4.32c3.4,2.15,5.58,4.38,6.66,6.82l.09.26c.88,2.77,1.19,9.66,1.19,14.72v63.07c0,6.34-1.56,11.46-4.64,15.23s-7.94,6.71-14.64,8.28C594.59,368.34,586,369.1,575.29,369.1ZM538.5,301V344c0,7.2,2.78,12.22,8.48,15.32,6.51,3.58,14.71,5,28.31,5,10.34,0,18.57-.72,24.44-2.13,5.63-1.32,9.68-3.54,12-6.61s3.62-7.09,3.62-12.31V280.27c0-5.71-.39-11.31-.93-13.19-.72-1.5-2.39-3.11-4.87-4.67l-.14-.1a21.25,21.25,0,0,0-8.55-3.53c-3.41-.6-9.43-.91-17.86-.91H564.27V193.52h25.34v39.15h25.78V201.16c0-4.15-.5-7.28-1.49-9.3l-.1-.21c-1.1-2.1-3.16-6-5.91-7.67-6.33-3.73-16.94-5.64-31.53-5.64-15.36,0-26.07,1.61-31.85,4.76-5,2.67-8.2,9.88-8.48,18.81v48.46a50.65,50.65,0,0,0,.19,6.41,14.87,14.87,0,0,0,.92,3.66,15.81,15.81,0,0,0,1.62,2.73,12.3,12.3,0,0,0,3.14,2.64,23.77,23.77,0,0,0,9.36,3.44c3.33.62,9.06.93,17.13.93h21.22v79H564.27V301Z" transform="translate(-120.94 -173.64)"/><path class="cls-5" d="M717.12,205v28.33h-32V193.69H665.33V346.56h19.74V270.75H674V254.12h43.15V343c0,5.87-1.33,10.49-4,13.9q-4,5.36-12.93,7.57-8.78,2.21-24.2,2.2c-14.32,0-24.64-1.79-30.88-5.38s-9.38-9.44-9.38-17.59V205c0-6.79.46-11.52,1.45-14.18a16.17,16.17,0,0,1,5.43-7.42,32.8,32.8,0,0,1,12.92-5.64q7.5-1.67,21.5-1.66,21.9,0,30.88,5.38,9.16,5.35,9.18,17.6Z" transform="translate(-120.94 -173.64)"/><path class="cls-6" d="M676,369c-14.9,0-25.38-1.86-32.06-5.69-7-4-10.57-10.6-10.57-19.64V205c0-7.17.53-12.07,1.6-15a18.56,18.56,0,0,1,6.22-8.48,35.22,35.22,0,0,1,13.88-6.08c5.11-1.13,12.51-1.7,22-1.7,15.17,0,25.67,1.86,32.09,5.71,6.85,4,10.33,10.61,10.33,19.62v36.6H682.71V196.05h-15V344.22h15V273.1h-11.1V251.76h47.87V343c0,6.36-1.5,11.52-4.47,15.34s-7.73,6.82-14.23,8.41C694.76,368.23,686.42,369,676,369Zm1-190.56c-9.12,0-16.18.55-21,1.6a30.7,30.7,0,0,0-12,5.25,13.93,13.93,0,0,0-4.62,6.34c-.86,2.35-1.3,6.85-1.3,13.36V343.67c0,7.32,2.67,12.41,8.19,15.55,5.87,3.36,15.86,5.07,29.72,5.07,10,0,18-.72,23.62-2.14,5.42-1.33,9.33-3.58,11.62-6.68s3.52-7.21,3.52-12.5V256.48H676.32V268.4h11.1v80.52H663V191.34h24.44V231h27.36V199.07c0-7.32-2.64-12.42-8-15.57C701.13,180.14,691.15,178.44,677.06,178.44Z" transform="translate(-120.94 -173.64)"/><rect class="cls-7" x="1.45" width="282.44" height="195.46"/><polygon class="cls-8" points="235.27 123.44 283.89 123.44 283.89 71.15 235.53 71.15 283.89 22.91 283.89 0 261.72 0 213.1 48.53 213.1 0 161.56 0 161.56 71.12 125.24 71.12 125.24 0 73.68 0 73.68 50.9 22.84 0 1.45 0 1.45 22.25 50.33 71.15 1.45 71.15 1.45 123.44 51.79 123.44 1.45 173.84 1.45 195.46 23.49 195.46 73.68 145.15 73.68 195.46 125.24 195.46 125.24 123.44 161.56 123.44 161.56 195.46 213.1 195.46 213.1 144.88 264.21 195.46 283.89 195.46 283.89 171.97 235.27 123.44"/><polygon class="cls-9" points="73.68 71.15 73.68 61.8 11.89 0 1.45 0 1.45 11.37 61.24 71.15 73.68 71.15"/><polygon class="cls-9" points="1.45 184.67 1.45 195.46 12.5 195.46 73.68 134.25 73.68 123.44 62.68 123.44 1.45 184.67"/><polygon class="cls-9" points="213.1 123.44 213.1 133.99 274.58 195.46 283.89 195.46 283.89 182.96 224.37 123.44 213.1 123.44"/><polygon class="cls-9" points="206.58 0 168.1 0 168.1 78.42 118.7 78.42 118.7 0 80.21 0 80.21 78.42 1.45 78.42 1.45 116.17 80.21 116.17 80.21 195.46 118.7 195.46 118.7 116.17 168.1 116.17 168.1 195.46 206.58 195.46 206.58 116.17 283.89 116.17 283.89 78.42 206.58 78.42 206.58 0"/><polygon class="cls-9" points="273.25 0 213.1 60.14 213.1 71.15 223.91 71.15 283.89 11.18 283.89 0 273.25 0"/><path class="cls-10" d="M120.94,413.46,132.26,384h4.2l12,29.44h-4.44l-3.44-8.92H128.32l-3.23,8.92Zm8.51-12.09h10l-3.09-8.15c-.92-2.48-1.63-4.52-2.08-6.11a37.28,37.28,0,0,1-1.59,5.63Z" transform="translate(-120.94 -173.64)"/><path class="cls-11" d="M167.61,413.46v-3.13a7.8,7.8,0,0,1-6.77,3.62,8.68,8.68,0,0,1-3.53-.73,5.71,5.71,0,0,1-2.42-1.82,6.54,6.54,0,0,1-1.12-2.67,18.21,18.21,0,0,1-.22-3.38V392.13h3.62V404a20.92,20.92,0,0,0,.22,3.82,3.75,3.75,0,0,0,1.44,2.24,4.49,4.49,0,0,0,2.73.81,6,6,0,0,0,3.05-.83,4.65,4.65,0,0,0,2-2.27,11.35,11.35,0,0,0,.58-4.17V392.13h3.62v21.33Z" transform="translate(-120.94 -173.64)"/><path class="cls-12" d="M177.53,407.09l3.57-.56a5,5,0,0,0,1.69,3.3,5.82,5.82,0,0,0,3.83,1.15,5.64,5.64,0,0,0,3.7-1,3.06,3.06,0,0,0,1.21-2.39,2.18,2.18,0,0,0-1.07-1.92,15.35,15.35,0,0,0-3.7-1.23,34.34,34.34,0,0,1-5.51-1.73,5.3,5.3,0,0,1-3.12-4.9,5.44,5.44,0,0,1,.66-2.64,5.82,5.82,0,0,1,1.77-2,7.61,7.61,0,0,1,2.3-1.05,11.22,11.22,0,0,1,3.13-.43,12.34,12.34,0,0,1,4.4.72,6,6,0,0,1,2.81,2,7.6,7.6,0,0,1,1.24,3.3l-3.54.48a3.85,3.85,0,0,0-1.4-2.57,5.09,5.09,0,0,0-3.25-.92,5.94,5.94,0,0,0-3.55.82,2.38,2.38,0,0,0-1.07,1.93,2,2,0,0,0,.43,1.27,3.3,3.3,0,0,0,1.39,1c.36.14,1.43.45,3.2.93A47.61,47.61,0,0,1,192,402.2a5.5,5.5,0,0,1,2.38,1.9,5.29,5.29,0,0,1,.86,3.1,6,6,0,0,1-1.06,3.4,6.67,6.67,0,0,1-3,2.47,11.1,11.1,0,0,1-4.49.88c-2.77,0-4.89-.58-6.33-1.73A8,8,0,0,1,177.53,407.09Z" transform="translate(-120.94 -173.64)"/><path class="cls-13" d="M209.91,410.23l.51,3.19a13,13,0,0,1-2.72.32,6.16,6.16,0,0,1-3.06-.62,3.5,3.5,0,0,1-1.53-1.64,13.14,13.14,0,0,1-.43-4.26V394.94H200v-2.81h2.66v-5.28l3.59-2.18v7.46h3.64v2.81h-3.64v12.47a6.18,6.18,0,0,0,.19,2,1.45,1.45,0,0,0,.63.71,2.4,2.4,0,0,0,1.23.26A12.52,12.52,0,0,0,209.91,410.23Z" transform="translate(-120.94 -173.64)"/><path class="cls-14" d="M215.86,413.46V392.13h3.26v3.24a8.57,8.57,0,0,1,2.31-3,4,4,0,0,1,2.31-.72,7.12,7.12,0,0,1,3.72,1.16l-1.25,3.36a5.09,5.09,0,0,0-2.65-.78,3.53,3.53,0,0,0-2.13.7,4,4,0,0,0-1.34,2,14.09,14.09,0,0,0-.61,4.21v11.17Z" transform="translate(-120.94 -173.64)"/><path class="cls-15" d="M246,410.83a13,13,0,0,1-3.87,2.41,10.81,10.81,0,0,1-4,.71,7.77,7.77,0,0,1-5.41-1.72,5.68,5.68,0,0,1-1.89-4.39,5.76,5.76,0,0,1,.72-2.86,5.7,5.7,0,0,1,1.87-2.08,8.37,8.37,0,0,1,2.6-1.19,25.91,25.91,0,0,1,3.21-.54,33.62,33.62,0,0,0,6.45-1.24c0-.5,0-.82,0-.95a4,4,0,0,0-1-3.12,6,6,0,0,0-4.11-1.22,6.49,6.49,0,0,0-3.77.89A5.46,5.46,0,0,0,235,398.7l-3.53-.48a8.55,8.55,0,0,1,1.59-3.67,6.93,6.93,0,0,1,3.18-2.15,14.36,14.36,0,0,1,4.85-.75,12.78,12.78,0,0,1,4.43.64,5.91,5.91,0,0,1,2.52,1.62,5.72,5.72,0,0,1,1.12,2.45,20.71,20.71,0,0,1,.18,3.34v4.82a49.21,49.21,0,0,0,.24,6.38,7.68,7.68,0,0,0,.9,2.56h-3.77A7.58,7.58,0,0,1,246,410.83Zm-.29-8.07a26.74,26.74,0,0,1-5.9,1.36,13.07,13.07,0,0,0-3.16.73,3.06,3.06,0,0,0-1.92,2.89,3.06,3.06,0,0,0,1.08,2.4,4.68,4.68,0,0,0,3.21,1,7.35,7.35,0,0,0,3.7-.91,5.57,5.57,0,0,0,2.4-2.5,8.7,8.7,0,0,0,.59-3.62Z" transform="translate(-120.94 -173.64)"/><path class="cls-16" d="M257.34,413.46V384H261v29.44Z" transform="translate(-120.94 -173.64)"/><path class="cls-17" d="M269.05,388.17V384h3.62v4.15Zm0,25.29V392.13h3.62v21.33Z" transform="translate(-120.94 -173.64)"/><path class="cls-18" d="M294.55,410.83a13.08,13.08,0,0,1-3.86,2.41,11,11,0,0,1-4,.71,7.78,7.78,0,0,1-5.4-1.72,5.68,5.68,0,0,1-1.89-4.39,5.86,5.86,0,0,1,.71-2.86A6,6,0,0,1,282,402.9a8.75,8.75,0,0,1,2.61-1.19,26.26,26.26,0,0,1,3.21-.54,33.79,33.79,0,0,0,6.45-1.24c0-.5,0-.82,0-.95a4,4,0,0,0-1-3.12,6.13,6.13,0,0,0-4.13-1.22,6.38,6.38,0,0,0-3.75.89,5.36,5.36,0,0,0-1.8,3.17l-3.54-.48a8.55,8.55,0,0,1,1.59-3.67,6.86,6.86,0,0,1,3.19-2.15,14.26,14.26,0,0,1,4.84-.75,12.8,12.8,0,0,1,4.44.64,6,6,0,0,1,2.51,1.62,5.85,5.85,0,0,1,1.13,2.45,20.71,20.71,0,0,1,.18,3.34v4.82a50,50,0,0,0,.23,6.38,7.7,7.7,0,0,0,.91,2.56h-3.77A7.8,7.8,0,0,1,294.55,410.83Zm-.29-8.07a26.85,26.85,0,0,1-5.91,1.36,13.46,13.46,0,0,0-3.16.73,3.07,3.07,0,0,0-1.42,1.18,3,3,0,0,0-.49,1.71,3.06,3.06,0,0,0,1.08,2.4,4.7,4.7,0,0,0,3.21,1,7.51,7.51,0,0,0,3.72-.91,5.63,5.63,0,0,0,2.38-2.5,8.54,8.54,0,0,0,.59-3.62Z" transform="translate(-120.94 -173.64)"/><path class="cls-19" d="M306,413.46V392.13h3.24v3a7.69,7.69,0,0,1,6.79-3.51,9,9,0,0,1,3.55.69,5.61,5.61,0,0,1,2.43,1.82,7.15,7.15,0,0,1,1.12,2.67,21.12,21.12,0,0,1,.2,3.51v13.12H319.7v-13a10.19,10.19,0,0,0-.41-3.31,3.52,3.52,0,0,0-1.5-1.74,4.76,4.76,0,0,0-2.52-.66,5.84,5.84,0,0,0-4,1.47c-1.12,1-1.67,2.84-1.67,5.56v11.65Z" transform="translate(-120.94 -173.64)"/><path class="cls-20" d="M345.9,413.46V384h19.85v3.47h-16v9.11h13.83v3.48H349.78v13.38Z" transform="translate(-120.94 -173.64)"/><path class="cls-21" d="M371.48,402.8q0-5.93,3.29-8.79a10,10,0,0,1,6.72-2.36,9.59,9.59,0,0,1,7.19,2.88c1.85,1.92,2.78,4.58,2.78,8a14,14,0,0,1-1.23,6.48,8.67,8.67,0,0,1-3.6,3.67,10.48,10.48,0,0,1-5.14,1.31,9.59,9.59,0,0,1-7.25-2.88Q371.48,408.21,371.48,402.8Zm3.71,0c0,2.73.59,4.77,1.8,6.13a5.92,5.92,0,0,0,9,0c1.19-1.37,1.79-3.44,1.79-6.25,0-2.63-.6-4.64-1.8-6a5.95,5.95,0,0,0-9,0C375.78,398,375.19,400.06,375.19,402.8Z" transform="translate(-120.94 -173.64)"/><path class="cls-22" d="M398.13,413.46V392.13h3.26v3.24a8.69,8.69,0,0,1,2.29-3,4.05,4.05,0,0,1,2.32-.72,7.09,7.09,0,0,1,3.72,1.16l-1.25,3.36a5,5,0,0,0-2.64-.78,3.56,3.56,0,0,0-2.14.7,4,4,0,0,0-1.34,2,14.09,14.09,0,0,0-.6,4.21v11.17Z" transform="translate(-120.94 -173.64)"/><path class="cls-23" d="M428.94,406.59l3.74.47a9.16,9.16,0,0,1-3.28,5.07,9.81,9.81,0,0,1-6.1,1.82,9.7,9.7,0,0,1-7.42-2.89c-1.84-1.92-2.75-4.61-2.75-8.09s.94-6.37,2.78-8.35a9.42,9.42,0,0,1,7.19-3,9.15,9.15,0,0,1,7,2.91c1.8,1.94,2.7,4.68,2.7,8.2,0,.21,0,.53,0,1h-15.9a8.17,8.17,0,0,0,2,5.38,5.91,5.91,0,0,0,4.46,1.88,5.46,5.46,0,0,0,3.39-1.06A6.86,6.86,0,0,0,428.94,406.59Zm-11.87-5.84H429a7.15,7.15,0,0,0-1.37-4,5.49,5.49,0,0,0-4.47-2.09,5.74,5.74,0,0,0-4.19,1.67A6.65,6.65,0,0,0,417.07,400.75Z" transform="translate(-120.94 -173.64)"/><path class="cls-24" d="M437.28,413.46l7.79-11.09-7.21-10.24h4.52l3.27,5c.61,1,1.11,1.75,1.48,2.39.59-.88,1.13-1.67,1.63-2.35l3.6-5h4.31l-7.36,10,7.93,11.29H452.8l-4.38-6.63-1.17-1.78-5.59,8.41Z" transform="translate(-120.94 -173.64)"/><path class="cls-25" d="M477,413.46V384h5.87l7,20.85c.65,1.94,1.12,3.39,1.42,4.36.32-1.08.83-2.65,1.56-4.73l7-20.48h5.25v29.44H501.3V388.81l-8.55,24.65h-3.51l-8.53-25.06v25.06Z" transform="translate(-120.94 -173.64)"/><path class="cls-26" d="M527.27,410.83a13.08,13.08,0,0,1-3.86,2.41,11,11,0,0,1-4,.71,7.77,7.77,0,0,1-5.39-1.72,5.69,5.69,0,0,1-1.9-4.39,6,6,0,0,1,2.58-4.94,8.93,8.93,0,0,1,2.6-1.19,27.22,27.22,0,0,1,3.22-.54,33.3,33.3,0,0,0,6.45-1.24c0-.5,0-.82,0-.95a4.07,4.07,0,0,0-1-3.12,6.11,6.11,0,0,0-4.12-1.22,6.37,6.37,0,0,0-3.76.89,5.41,5.41,0,0,0-1.8,3.17l-3.55-.48a8.94,8.94,0,0,1,1.6-3.67,6.86,6.86,0,0,1,3.19-2.15,14.3,14.3,0,0,1,4.84-.75,12.76,12.76,0,0,1,4.44.64,5.87,5.87,0,0,1,2.51,1.62,5.61,5.61,0,0,1,1.13,2.45,21,21,0,0,1,.17,3.34v4.82a54.31,54.31,0,0,0,.23,6.38,8.45,8.45,0,0,0,.92,2.56H528A8,8,0,0,1,527.27,410.83Zm-.3-8.07a26.57,26.57,0,0,1-5.91,1.36,13.21,13.21,0,0,0-3.15.73,3.15,3.15,0,0,0-1.43,1.18,3.08,3.08,0,0,0-.49,1.71,3,3,0,0,0,1.09,2.4,4.68,4.68,0,0,0,3.21,1,7.45,7.45,0,0,0,3.71-.91,5.65,5.65,0,0,0,2.39-2.5,8.73,8.73,0,0,0,.58-3.62Z" transform="translate(-120.94 -173.64)"/><path class="cls-27" d="M538.65,413.46V392.13h3.27v3.24a8.69,8.69,0,0,1,2.3-3,4,4,0,0,1,2.31-.72,7.12,7.12,0,0,1,3.72,1.16L549,396.17a5.08,5.08,0,0,0-2.64-.78,3.54,3.54,0,0,0-2.14.7,3.89,3.89,0,0,0-1.34,2,14.09,14.09,0,0,0-.61,4.21v11.17Z" transform="translate(-120.94 -173.64)"/><path class="cls-28" d="M554.89,413.46V384h3.62v16.79l8.55-8.68h4.68l-8.16,7.92,9,13.41H568.1l-7-10.9L558.51,405v8.46Z" transform="translate(-120.94 -173.64)"/><path class="cls-29" d="M592.51,406.59l3.73.47a9,9,0,0,1-3.27,5.07,11.06,11.06,0,0,1-13.53-1.07c-1.83-1.92-2.73-4.61-2.73-8.09s.91-6.37,2.76-8.35a9.42,9.42,0,0,1,7.19-3,9.12,9.12,0,0,1,7,2.91c1.81,1.94,2.72,4.68,2.72,8.2,0,.21,0,.53,0,1H580.43a8.28,8.28,0,0,0,2,5.38,5.91,5.91,0,0,0,4.46,1.88,5.47,5.47,0,0,0,3.4-1.06A6.86,6.86,0,0,0,592.51,406.59Zm-11.87-5.84h11.91a7.3,7.3,0,0,0-1.36-4,5.56,5.56,0,0,0-4.49-2.09,5.75,5.75,0,0,0-4.19,1.67A6.55,6.55,0,0,0,580.64,400.75Z" transform="translate(-120.94 -173.64)"/><path class="cls-30" d="M611.15,410.23l.52,3.19a13,13,0,0,1-2.74.32,6.12,6.12,0,0,1-3-.62,3.43,3.43,0,0,1-1.52-1.64,12.76,12.76,0,0,1-.44-4.26V394.94h-2.66v-2.81h2.66v-5.28l3.59-2.18v7.46h3.64v2.81h-3.64v12.47a6.28,6.28,0,0,0,.18,2,1.55,1.55,0,0,0,.63.71,2.46,2.46,0,0,0,1.24.26A12.67,12.67,0,0,0,611.15,410.23Z" transform="translate(-120.94 -173.64)"/><path class="cls-31" d="M617.15,421.64V392.13h3.29v2.77a8,8,0,0,1,2.63-2.44,7.26,7.26,0,0,1,3.56-.81,8.44,8.44,0,0,1,4.81,1.4,8.6,8.6,0,0,1,3.16,4,14.46,14.46,0,0,1,1.06,5.62,14.07,14.07,0,0,1-1.17,5.88,8.92,8.92,0,0,1-8.12,5.43,6.74,6.74,0,0,1-3.24-.77,7.15,7.15,0,0,1-2.36-1.93v10.39Zm3.27-18.73c0,2.75.55,4.78,1.67,6.09a5.09,5.09,0,0,0,4,2,5.2,5.2,0,0,0,4.13-2.05q1.72-2,1.72-6.31c0-2.72-.56-4.75-1.67-6.12a5.1,5.1,0,0,0-4-2,5.19,5.19,0,0,0-4.09,2.16A9.7,9.7,0,0,0,620.42,402.91Z" transform="translate(-120.94 -173.64)"/><path class="cls-32" d="M642.41,413.46V384H646v29.44Z" transform="translate(-120.94 -173.64)"/><path class="cls-33" d="M668,410.83a13,13,0,0,1-3.87,2.41,10.86,10.86,0,0,1-4,.71,7.79,7.79,0,0,1-5.41-1.72,6,6,0,0,1-1.17-7.25,5.79,5.79,0,0,1,1.87-2.08,8.58,8.58,0,0,1,2.6-1.19,26.74,26.74,0,0,1,3.2-.54,33.43,33.43,0,0,0,6.46-1.24c0-.5,0-.82,0-.95a4.07,4.07,0,0,0-1-3.12,6.09,6.09,0,0,0-4.12-1.22,6.43,6.43,0,0,0-3.77.89,5.57,5.57,0,0,0-1.8,3.17l-3.52-.48a8.43,8.43,0,0,1,1.58-3.67,6.91,6.91,0,0,1,3.19-2.15,14.3,14.3,0,0,1,4.84-.75,12.72,12.72,0,0,1,4.44.64,5.81,5.81,0,0,1,2.51,1.62,5.6,5.6,0,0,1,1.12,2.45,19.57,19.57,0,0,1,.18,3.34v4.82a49.21,49.21,0,0,0,.24,6.38,7.92,7.92,0,0,0,.91,2.56h-3.77A7.58,7.58,0,0,1,668,410.83Zm-.3-8.07a26.45,26.45,0,0,1-5.9,1.36,13.2,13.2,0,0,0-3.16.73,3.09,3.09,0,0,0-1.43,1.18,3,3,0,0,0-.5,1.71,3.07,3.07,0,0,0,1.09,2.4,4.71,4.71,0,0,0,3.22,1,7.41,7.41,0,0,0,3.7-.91,5.54,5.54,0,0,0,2.39-2.5,8.54,8.54,0,0,0,.59-3.62Z" transform="translate(-120.94 -173.64)"/><path class="cls-34" d="M693.37,405.65l3.55.46a9.3,9.3,0,0,1-3,5.76A8.71,8.71,0,0,1,688,414a9.16,9.16,0,0,1-7-2.87c-1.78-1.91-2.65-4.64-2.65-8.2a14.94,14.94,0,0,1,1.14-6.05,8,8,0,0,1,3.48-3.89,10.42,10.42,0,0,1,5.1-1.29,9,9,0,0,1,5.69,1.75,8.12,8.12,0,0,1,2.82,5l-3.51.54a5.81,5.81,0,0,0-1.79-3.23,4.55,4.55,0,0,0-3.08-1.09,5.59,5.59,0,0,0-4.43,2q-1.71,1.95-1.71,6.2c0,2.86.55,5,1.65,6.24a5.36,5.36,0,0,0,4.3,2,5,5,0,0,0,3.55-1.32A6.46,6.46,0,0,0,693.37,405.65Z" transform="translate(-120.94 -173.64)"/><path class="cls-35" d="M717.09,406.59l3.73.47a9.05,9.05,0,0,1-3.28,5.07A11,11,0,0,1,704,411.06c-1.83-1.92-2.75-4.61-2.75-8.09s.92-6.37,2.77-8.35a9.42,9.42,0,0,1,7.19-3,9.12,9.12,0,0,1,7,2.91c1.81,1.94,2.71,4.68,2.71,8.2,0,.21,0,.53,0,1H705a8.22,8.22,0,0,0,2,5.38,6,6,0,0,0,4.47,1.88,5.46,5.46,0,0,0,3.39-1.06A6.86,6.86,0,0,0,717.09,406.59Zm-11.87-5.84h11.91a7.38,7.38,0,0,0-1.36-4,5.55,5.55,0,0,0-4.49-2.09,5.75,5.75,0,0,0-4.19,1.67A6.6,6.6,0,0,0,705.22,400.75Z" transform="translate(-120.94 -173.64)"/></svg>